<?xml version="1.0" standalone="no"?><!DOCTYPE svg PUBLIC "-//W3C//DTD SVG 1.1//EN" "http://www.w3.org/Graphics/SVG/1.1/DTD/svg11.dtd"><svg t="1712650294861" class="icon" viewBox="0 0 1024 1024" version="1.1" xmlns="http://www.w3.org/2000/svg" p-id="5944" xmlns:xlink="http://www.w3.org/1999/xlink" width="128" height="128"><path d="M580.060896 254.319885a17.125229 17.125229 0 0 0-9.347237-13.713828l-124.789019-62.39451 31.555452-157.77726a17.022887 17.022887 0 0 0-27.35943-16.647633L290.19422 131.714162l-159.926441-127.927508a17.193457 17.193457 0 0 0-19.51321-1.262218 16.954659 16.954659 0 0 0-7.84622 17.909851l31.555452 157.77726L9.640667 240.606057a17.057001 17.057001 0 0 0-2.626778 28.894559l127.85928 95.89446-31.998934 160.028784a17.022887 17.022887 0 0 0 27.35943 16.647633l159.926441-127.927508 159.926442 127.927508a17.227571 17.227571 0 0 0 10.677683 3.718426h0.34114a17.057001 17.057001 0 0 0 15.487757-24.903221l-31.11197-155.525736 127.859279-95.89446a16.954659 16.954659 0 0 0 6.720459-15.146617z" fill="#1afa29" p-id="5945"></path><path d="M291.183526 34.114002c-9.415465 0-17.227571-7.641536-17.227571-17.057001s7.470966-17.057001 16.886431-17.057001h0.34114a17.057001 17.057001 0 0 1 0 34.114002zM529.981541 170.57001c-9.415465 0-17.227571-7.641536-17.227571-17.057001s7.470966-17.057001 16.886431-17.057001h0.34114a17.057001 17.057001 0 0 1 0 34.114002zM18.27151 170.57001c-9.415465 0-17.227571-7.641536-17.227571-17.057001s7.470966-17.057001 16.886431-17.057001h0.34114a17.057001 17.057001 0 0 1 0 34.114002zM291.183526 545.824033c-9.415465 0-17.227571-7.641536-17.227571-17.057001s7.470966-17.057001 16.886431-17.057001h0.34114a17.057001 17.057001 0 0 1 0 34.114002zM18.27151 409.368025c-9.415465 0-17.227571-7.641536-17.227571-17.057001s7.470966-17.057001 16.886431-17.057001h0.34114a17.057001 17.057001 0 0 1 0 34.114002zM767.756135 675.218443L525.649062 433.11137a17.057001 17.057001 0 0 0-28.758103 15.419529l14.054969 70.24073c3.274944 16.374721-2.115068 33.49995-14.396109 45.815105a17.057001 17.057001 0 0 0 0 24.1186l178.893827 178.893826 92.312489-92.380717zM984.516504 891.978812l-192.607655-192.607656-92.346604 92.346604 209.664657 209.664657c15.078389 15.078389 29.91798 22.447013 45.26928 22.447013 15.555985 0 30.702602-7.573308 45.166939-22.139987 15.214845-12.656295 22.958723-26.131326 23.675118-41.175601 1.125762-23.197521-14.669021-44.143519-38.821735-68.53503z" fill="#1afa29" p-id="5946"></path></svg>